<svg width="33" height="21" viewBox="0 0 33 21" fill="none" xmlns="http://www.w3.org/2000/svg">
<g clip-path="url(#clip0_211_2057)">
<path d="M30.7852 3.23108C30.7852 3.25461 30.7852 3.28403 30.779 3.30169C30.7484 3.53117 30.7484 3.76065 30.7667 3.99602C30.779 4.05486 30.7913 4.11371 30.8403 4.16078C30.92 4.24904 31.0426 4.23139 31.0917 4.12547C31.1162 4.07252 31.1162 4.01956 31.1039 3.9666C31.0426 3.743 31.0304 3.50763 31.0243 3.27815C31.0243 3.26638 31.0243 3.24873 31.0243 3.23108C31.0917 3.22519 31.153 3.2193 31.2082 3.2193C31.2511 3.21342 31.2879 3.20754 31.3186 3.18988C31.4105 3.14281 31.4105 3.04278 31.3124 2.99571C31.2756 2.97805 31.2266 2.97217 31.1837 2.97217C31.0304 2.97805 30.8771 2.97805 30.7238 2.97805C30.6687 2.97805 30.6135 2.98394 30.5583 2.98982C30.5276 2.99571 30.4909 2.99571 30.4664 3.01336C30.4234 3.03101 30.3989 3.06043 30.3989 3.10162C30.405 3.14281 30.4234 3.16635 30.4664 3.184C30.4909 3.20166 30.5215 3.20754 30.5522 3.20754C30.6257 3.21342 30.7055 3.22519 30.7852 3.23108ZM32.4711 3.50175C32.4711 3.50763 32.4772 3.51352 32.4772 3.51352C32.5018 3.67239 32.5263 3.82538 32.5447 3.97837C32.5508 4.03132 32.557 4.0784 32.5937 4.11959C32.6734 4.21962 32.7961 4.20785 32.8512 4.10194C32.8758 4.04898 32.8819 3.99602 32.8696 3.93718C32.8328 3.76065 32.8144 3.58413 32.7777 3.41348C32.7531 3.30757 32.7225 3.20754 32.6918 3.11339C32.6734 3.05455 32.6305 3.01336 32.557 3.00748C32.4834 2.99571 32.4282 3.03101 32.3975 3.08397C32.3608 3.13104 32.3301 3.17812 32.3056 3.23108C32.2627 3.32522 32.2259 3.41937 32.1769 3.50763C32.1707 3.53117 32.1646 3.54882 32.1523 3.56647C32.1462 3.5547 32.1401 3.54882 32.1401 3.54882C32.0603 3.40172 31.9868 3.25461 31.9071 3.11339C31.8948 3.10162 31.8887 3.08985 31.8826 3.07808C31.8458 3.02513 31.8029 2.99571 31.7354 2.99571C31.6741 3.00159 31.625 3.0369 31.5944 3.08985C31.5821 3.11339 31.5821 3.13104 31.576 3.15458C31.5515 3.34287 31.5208 3.53117 31.4963 3.71946C31.484 3.82538 31.4779 3.93129 31.4779 4.03721C31.4718 4.06074 31.4779 4.09017 31.4902 4.11371C31.5025 4.16078 31.5392 4.1902 31.5883 4.19608C31.6496 4.20197 31.6925 4.18431 31.7109 4.13724C31.7293 4.10194 31.7354 4.07252 31.7416 4.0431C31.7661 3.93718 31.7845 3.83715 31.8029 3.73712C31.8151 3.67827 31.8212 3.6312 31.8397 3.56647C31.8519 3.59001 31.8641 3.60766 31.8764 3.62531C31.9316 3.69593 31.9868 3.76654 32.0542 3.82538C32.1217 3.87245 32.1769 3.86657 32.232 3.81361C32.2443 3.80184 32.2504 3.79596 32.2627 3.78419C32.3179 3.70181 32.3853 3.61943 32.4405 3.53705C32.4527 3.52528 32.4589 3.51352 32.4711 3.50175Z" fill="#7A6E3A"/>
<path d="M18.3449 3.34662C18.3023 3.45844 18.2941 3.53901 18.3138 3.60597C18.3355 3.69703 18.392 3.72684 18.4685 3.70368C19.1886 3.53277 20.7677 4.01788 21.3523 4.15309C21.4902 4.18148 21.6024 4.01065 21.5083 3.85749C21.371 3.70917 19.7926 3.07415 19.1903 3.03953C18.9543 3.02673 18.5323 2.96863 18.3449 3.34662Z" fill="#7A6E3A"/>
<path d="M24.5161 1.29099C24.5929 1.3335 24.6358 1.37406 24.657 1.41937C24.6885 1.47881 24.6719 1.51993 24.6189 1.54092C24.1429 1.76389 23.5094 2.72383 23.2538 3.0549C23.1918 3.13107 23.0488 3.08681 23.0272 2.96156C23.0317 2.81995 23.5931 1.7782 23.9065 1.49446C24.0297 1.38368 24.2331 1.16632 24.5161 1.29099Z" fill="#7A6E3A"/>
<path d="M20.7254 0.818478C20.8176 0.751783 20.9134 0.728411 20.9623 0.771755C21.6805 1.36125 22.0614 2.29478 22.2972 3.1494C22.3061 3.16931 22.3067 3.19788 22.2996 3.22769C22.2966 3.25317 22.2772 3.28008 22.2464 3.3009C22.2135 3.32389 22.1852 3.33089 22.1719 3.31108C21.8571 2.90017 20.0593 1.30139 20.7254 0.818478Z" fill="#7A6E3A"/>
<path d="M5.51689 11.0389C5.68901 10.9159 5.87615 10.8135 6.07417 10.734C6.28135 10.6772 6.50218 10.6866 6.70328 10.7609C6.90434 10.8352 7.07479 10.9703 7.18873 11.1458C7.29066 11.3209 7.33053 11.523 7.30239 11.7218C7.27426 11.9205 7.17962 12.105 7.03268 12.2477C6.91878 12.3633 6.78946 12.464 6.64818 12.5472C6.01846 12.9377 5.38313 13.3067 4.74783 13.6972C4.61783 13.7949 4.47993 13.8826 4.33543 13.9593C4.11565 14.0645 3.86447 14.0926 3.62533 14.0389C3.38619 13.9852 3.17413 13.853 3.02581 13.6651C2.91494 13.5321 2.82137 13.3866 2.74717 13.2318C2.1453 12.0177 1.52115 10.8089 0.941566 9.5733C0.674068 9.03847 0.456728 8.42334 0.244959 7.82965C0.153339 7.65715 0.135447 7.45717 0.195095 7.27219C0.254742 7.08721 0.387223 6.93187 0.564355 6.8392C0.741489 6.74653 0.949297 6.72387 1.14359 6.77598C1.33788 6.8281 1.50332 6.95091 1.60473 7.11827C1.91644 7.51584 2.19236 7.93815 2.42952 8.38059C3.03138 9.45031 3.60539 10.52 4.18497 11.5577C4.21872 11.615 4.25593 11.6704 4.29642 11.7235C4.73265 11.5475 5.14295 11.3173 5.51689 11.0389Z" fill="#7A6E3A"/>
<path d="M11.7398 10.6658C10.3634 12.2115 8.05619 11.8211 6.89704 9.83136C6.07224 8.4193 5.92736 6.08727 7.72184 4.61638C8.10503 4.30844 8.56323 4.09867 9.05372 4.00663C9.65512 3.92388 10.2684 4.02571 10.8059 4.29757C11.3433 4.56943 11.7775 4.99739 12.0464 5.52032C13.0272 7.23191 12.8879 9.41415 11.7398 10.6658ZM11.1826 7.06074C11.0363 6.64014 10.743 6.28105 10.3522 6.04446C10.1311 5.89321 9.8624 5.81967 9.59142 5.83623C9.3204 5.85279 9.06363 5.95844 8.86426 6.13539C8.06736 6.8147 7.90014 8.42467 8.47971 9.38208C8.5536 9.5382 8.66208 9.67694 8.79766 9.7886C8.93324 9.90027 9.09261 9.98216 9.2646 10.0285C9.43659 10.0749 9.61703 10.0846 9.79337 10.057C9.9697 10.0294 10.1376 9.96519 10.2854 9.8688C10.7173 9.54733 11.0343 9.10471 11.192 8.60245C11.3499 8.10013 11.3407 7.56314 11.1659 7.06611L11.1826 7.06074Z" fill="#7A6E3A"/>
<path d="M17.3572 7.7346C17.2163 7.76369 17.0707 7.76543 16.9291 7.7397C16.7875 7.71396 16.6526 7.66134 16.5325 7.58486C16.4274 7.52715 16.3369 7.44782 16.2675 7.35254C16.1982 7.25725 16.1518 7.14843 16.1315 7.03383C16.1113 6.91927 16.1177 6.80183 16.1504 6.68993C16.1831 6.57804 16.2413 6.47449 16.3207 6.38673C16.4591 6.21038 16.6554 6.08412 16.878 6.02838C17.4591 5.86653 18.0573 5.76784 18.6613 5.73422C18.794 5.7194 18.9285 5.73018 19.0568 5.76592C19.1851 5.8017 19.3047 5.86166 19.4085 5.94241C19.5123 6.02311 19.5983 6.12293 19.6614 6.23598C19.7245 6.34902 19.7634 6.47302 19.7759 6.6007C19.95 7.22784 19.9691 7.8854 19.8316 8.5209C19.3301 10.5748 17.6025 11.2808 15.6631 10.6229C15.1187 10.447 14.6414 10.1193 14.2922 9.68155C13.8264 9.15442 13.4962 8.5297 13.3281 7.85765C13.1919 7.25918 13.2068 6.63818 13.3716 6.04641C13.5364 5.45464 13.8463 4.90927 14.2755 4.45587C14.6827 3.96307 15.2113 3.57523 15.8136 3.32729C16.1942 3.12596 16.6395 3.06871 17.0619 3.16683C17.1577 3.19228 17.2447 3.24188 17.3138 3.31047C17.3829 3.37906 17.4317 3.46415 17.455 3.55692C17.4783 3.64968 17.4753 3.74675 17.4464 3.83804C17.4174 3.92933 17.3636 4.01153 17.2904 4.07611C17.1512 4.19702 17 4.30451 16.839 4.39703C16.3435 4.69985 15.9124 5.09006 15.5684 5.54699C15.3429 5.84267 15.1876 6.18221 15.1134 6.54166C15.0393 6.90111 15.0481 7.27179 15.1393 7.62766C15.2657 8.11286 15.5461 8.54838 15.9417 8.87388C17.1678 9.94364 18.7616 8.91131 18.483 7.45113C18.0762 7.54742 17.7195 7.64904 17.3572 7.7346Z" fill="#7A6E3A"/>
<path d="M24.8473 10.7514C23.0361 11.8211 20.9742 10.7514 20.5227 8.50493C20.194 6.90032 20.8181 4.65386 23.0027 3.79807C23.4675 3.6199 23.9716 3.55735 24.4683 3.61621C25.0651 3.72106 25.6126 4.00304 26.0335 4.42239C26.4544 4.84174 26.7276 5.37729 26.8145 5.9536C27.1823 7.86306 26.3464 9.90093 24.8473 10.7514ZM25.4771 7.15169C25.4765 6.70736 25.3127 6.2774 25.0145 5.93754C24.8551 5.72733 24.6246 5.57672 24.3624 5.51134C24.1002 5.44601 23.8225 5.46996 23.5767 5.5792C22.5959 5.98567 21.9048 7.46191 22.1556 8.54773C22.1748 8.71812 22.2324 8.88245 22.3247 9.02921C22.4169 9.17598 22.5414 9.30163 22.6895 9.39743C22.8375 9.49317 23.0056 9.55676 23.182 9.58369C23.3584 9.61057 23.5387 9.6002 23.7104 9.55327C24.2289 9.37944 24.6778 9.05458 24.9945 8.62403C25.3112 8.19347 25.4799 7.67872 25.4771 7.15169Z" fill="#7A6E3A"/>
<path d="M28.646 11.2006C28.6187 11.3964 28.5115 11.5737 28.3479 11.6936C28.1843 11.8134 27.9779 11.866 27.7739 11.8398C27.5699 11.8136 27.3852 11.7106 27.2603 11.5536C27.1354 11.3967 27.0806 11.1985 27.108 11.0027C27.1353 10.807 27.2426 10.6297 27.4061 10.5098C27.5697 10.3899 27.7761 10.3373 27.9801 10.3636C28.1841 10.3898 28.3688 10.4927 28.4937 10.6497C28.6186 10.8067 28.6734 11.0049 28.646 11.2006ZM28.1612 3.98523C28.2672 3.82986 28.4227 3.71155 28.6045 3.64793C28.7863 3.58431 28.9846 3.5788 29.1699 3.63221C29.3583 3.67745 29.5247 3.78344 29.6414 3.93241C29.7581 4.08139 29.8179 4.26432 29.8108 4.45057C29.7862 4.7493 29.7397 5.04601 29.6715 5.33844C29.4876 6.32797 29.3092 7.31745 29.1142 8.29629C29.025 8.68675 28.908 9.06115 28.7798 9.45694C28.7352 9.58067 28.6607 9.69247 28.5625 9.78322C28.5014 9.85148 28.4234 9.90383 28.3356 9.93544C28.2479 9.96709 28.1532 9.97695 28.0604 9.96416C27.9677 9.95136 27.8797 9.91631 27.8048 9.86226C27.7299 9.80817 27.6704 9.73683 27.6318 9.65485C27.5656 9.50777 27.5296 9.34972 27.5259 9.18952C27.5259 8.52627 27.5259 7.8577 27.5705 7.18908C27.6463 6.23493 27.7953 5.28741 28.0163 4.35429C28.0424 4.22927 28.0914 4.10972 28.1612 4.00127V3.98523Z" fill="#7A6E3A"/>
<path fill-rule="evenodd" clip-rule="evenodd" d="M3.16231 15.4987C3.09651 15.6397 3.07847 15.7969 3.11062 15.9481C3.13201 16.1475 3.179 16.3436 3.2505 16.532C3.33978 16.7627 3.43968 16.9908 3.56285 17.2719C3.59118 17.3366 3.62078 17.4041 3.65176 17.4752C3.81787 17.8561 4.02629 18.3428 4.3043 19.0473C4.38299 19.2474 4.45287 19.4492 4.52323 19.6523C4.55166 19.7344 4.58019 19.8167 4.60939 19.8993C4.71406 20.1927 4.89416 20.4563 5.13289 20.6652C5.23426 20.7801 5.36872 20.8637 5.51949 20.9056C5.6732 20.9482 5.83669 20.9455 5.98877 20.8978C6.14084 20.8501 6.27442 20.7595 6.37214 20.6379C6.46795 20.5186 6.52492 20.375 6.536 20.2248C6.59816 19.9324 6.57694 19.6292 6.47449 19.3473C6.3119 18.8792 6.12668 18.4104 5.9131 17.952L5.91212 17.9499C5.56076 17.2326 5.2036 16.5202 4.82954 15.8076L4.82674 15.8026C4.71724 15.6169 4.57493 15.4509 4.40622 15.3121C4.29668 15.1882 4.1456 15.1046 3.97875 15.0758C3.80835 15.0464 3.6326 15.076 3.48289 15.1594C3.34126 15.2371 3.22899 15.3558 3.16231 15.4987Z" fill="#7A6E3A"/>
<path fill-rule="evenodd" clip-rule="evenodd" d="M8.52889 13.7324C7.97797 13.5954 7.4026 13.5755 6.84289 13.6739C6.40936 13.7149 5.98299 13.8109 5.68692 14.001C5.53633 14.0977 5.41459 14.222 5.34686 14.3799C5.27877 14.5387 5.27008 14.7202 5.32588 14.9226C5.42776 15.2932 5.56007 15.6535 5.69192 16.0127L5.71328 16.0708L5.71379 16.0721C6.11077 17.1155 6.51153 18.1554 6.91594 19.1918C6.96309 19.3551 7.02978 19.5126 7.11466 19.6612L7.11625 19.664C7.22837 19.8486 7.37217 20.0137 7.54159 20.1524C7.62632 20.2286 7.73111 20.2814 7.84472 20.305C7.95946 20.3287 8.07878 20.3219 8.18968 20.285C8.30063 20.2481 8.39887 20.1828 8.47374 20.096C8.5474 20.0106 8.59563 19.9077 8.61334 19.7983C8.68644 19.5009 8.66302 19.1892 8.54618 18.9049C8.50973 18.8092 8.48113 18.7115 8.45098 18.6086C8.44093 18.5743 8.43075 18.5394 8.42 18.5038C9.3457 18.1565 10.3307 17.6895 10.677 16.6031C10.8127 16.2277 10.824 15.8212 10.7094 15.4393C10.5947 15.057 10.3594 14.7182 10.0359 14.4694C9.59555 14.1212 9.08122 13.8696 8.52889 13.7324ZM7.00179 15.0649C7.02002 15.0598 7.03838 15.0552 7.0568 15.0508C7.65946 14.9599 8.27605 15.081 8.79304 15.3919C9.02088 15.544 9.11421 15.7129 9.13025 15.8755C9.14679 16.0429 9.08337 16.2243 8.95597 16.3987C8.71523 16.7281 8.27591 16.9918 7.87907 17.0409C7.58978 16.4015 7.29599 15.7362 7.00179 15.0649Z" fill="#7A6E3A"/>
<path d="M12.2018 12.5619C12.8579 12.2711 13.6706 12.2208 14.3065 12.4253C14.4667 12.4701 14.6057 12.5669 14.6996 12.6993C14.793 12.8308 14.8361 12.9893 14.8217 13.1478C14.8208 13.2506 14.7945 13.3518 14.745 13.4431C14.6946 13.5361 14.6216 13.616 14.5323 13.6762C14.4429 13.7363 14.3398 13.775 14.2316 13.7888C14.1233 13.8027 14.0133 13.7913 13.9106 13.7557L13.9028 13.753L13.8955 13.7492C13.8429 13.7229 13.7871 13.703 13.7294 13.6901L13.7258 13.6893C13.2784 13.5752 12.8564 13.7642 12.7023 13.9964C12.6288 14.1071 12.6196 14.2188 12.6809 14.3205C12.7464 14.4294 12.9073 14.5515 13.2327 14.6386C13.3222 14.6622 13.4139 14.685 13.507 14.7081C13.7643 14.772 14.0317 14.8385 14.2903 14.9305L14.2913 14.9309C15.4843 15.3665 15.9285 16.2688 15.7764 17.1175C15.626 17.9567 14.8957 18.7205 13.7976 18.9006C13.398 18.9856 12.9821 18.9691 12.5912 18.8526C12.1993 18.7357 11.846 18.5225 11.5665 18.2341L11.5592 18.2265C11.4709 18.1179 11.4116 17.9902 11.3853 17.8547C11.361 17.7324 11.3738 17.6061 11.4219 17.4905C11.4698 17.3757 11.5507 17.2762 11.6552 17.2038C11.7655 17.1217 11.8986 17.0724 12.0378 17.0621C12.1765 17.0519 12.3154 17.0808 12.4372 17.1453C12.5589 17.2018 12.6721 17.2738 12.7737 17.3594L12.7757 17.3609C12.9554 17.5187 13.1729 17.5598 13.3814 17.5217C13.593 17.4831 13.7919 17.3629 13.9199 17.2035C14.047 17.0451 14.0981 16.8569 14.0375 16.6742C13.9765 16.4902 13.7933 16.2841 13.3907 16.1117C13.2854 16.0688 13.1763 16.0342 13.0628 16.0005C13.0321 15.9914 13.001 15.9824 12.9695 15.9732C12.8856 15.9488 12.7992 15.9236 12.7145 15.8958C12.6562 15.8768 12.5983 15.8587 12.541 15.8407C12.3844 15.7918 12.2317 15.7441 12.0848 15.6801C11.765 15.5756 11.4887 15.3749 11.297 15.1078C11.1046 14.8396 11.0077 14.5188 11.0209 14.1935C11.0219 13.4006 11.5422 12.8543 12.2018 12.5619Z" fill="#7A6E3A"/>
<path d="M20.5196 12.4775C20.3923 12.4178 20.2517 12.3895 20.1102 12.3951C19.9688 12.4007 19.831 12.44 19.7093 12.5095C19.5884 12.5785 19.4872 12.6751 19.4147 12.7907C19.3482 12.8881 19.3021 12.997 19.2792 13.1114C19.2562 13.2257 19.2568 13.3431 19.2808 13.4572C19.3045 13.6037 19.3307 13.7462 19.3567 13.8867C19.3996 14.1193 19.4414 14.3466 19.469 14.5783L19.47 14.5842C19.5328 14.9477 19.5656 15.3153 19.5686 15.6837L19.5689 15.6889C19.5903 16.0868 19.4491 16.4769 19.1754 16.7765L19.1711 16.7818C19.082 16.8913 18.963 16.9749 18.8272 17.0232C18.6915 17.0715 18.5445 17.0826 18.4026 17.0553C18.2606 17.0279 18.1294 16.9632 18.0236 16.8684C17.9178 16.7736 17.8415 16.652 17.8034 16.518C17.7221 16.2355 17.675 15.945 17.663 15.6522L17.8019 13.5298C17.804 13.5021 17.8063 13.4736 17.8087 13.4449C17.814 13.3804 17.8194 13.3148 17.8217 13.2535C17.8249 13.1634 17.8221 13.0708 17.8003 12.9831C17.7779 12.8934 17.7353 12.8081 17.6598 12.7355C17.585 12.6636 17.484 12.6106 17.357 12.5745C17.1273 12.5107 16.9331 12.5127 16.7712 12.5786C16.6093 12.6445 16.4983 12.7669 16.4198 12.9083C16.3419 13.0485 16.2919 13.2145 16.254 13.3808C16.2259 13.5041 16.2033 13.6336 16.1819 13.7569C16.1745 13.7994 16.1672 13.8411 16.1599 13.8816L16.1597 13.8828C16.0449 14.5589 16.0107 15.2453 16.0578 15.9287C16.0666 16.2981 16.1469 16.6627 16.2946 17.0039C16.4612 17.4441 16.763 17.8255 17.1601 18.0978C17.558 18.3707 18.0329 18.521 18.5219 18.5289C19.0108 18.5369 19.4908 18.402 19.8981 18.1423C20.3048 17.883 20.62 17.5113 20.802 17.0764C21.0566 16.5224 21.1761 15.92 21.1514 15.315C21.1365 14.8732 21.1114 14.4281 21.0865 13.9853C21.0743 13.7681 21.0621 13.5513 21.0511 13.3359C21.0456 13.1198 20.9714 12.9106 20.8384 12.7362C20.7561 12.6259 20.6465 12.537 20.5196 12.4775Z" fill="#7A6E3A"/>
<path d="M25.0222 15.8055C25.0093 15.8212 24.9957 15.8375 24.9815 15.8544C24.8781 15.2815 24.7822 14.7088 24.6861 14.1352C24.6517 13.9293 24.617 13.7227 24.5822 13.5166L24.5783 13.4936L24.5656 13.4737C24.5416 13.4363 24.5392 13.3997 24.5392 13.3215V13.3125L24.5378 13.3035C24.5118 13.1421 24.4357 12.9918 24.3195 12.8725C24.2036 12.7534 24.053 12.6706 23.8874 12.6346C23.7221 12.5955 23.5484 12.6041 23.3882 12.6594C23.2283 12.7146 23.089 12.8138 22.9876 12.9445C22.9033 13.0449 22.8342 13.1562 22.7824 13.2751C22.6648 13.5313 22.5463 13.7881 22.4274 14.0456L22.4253 14.05C22.1285 14.6929 21.8297 15.3401 21.5395 15.9924L21.5386 15.9945C21.3605 16.4175 21.2135 16.8631 21.067 17.3074C21.0377 17.3961 21.0085 17.4847 20.979 17.5731C20.9261 17.7133 20.9029 17.8622 20.9109 18.0111C20.9012 18.1444 20.9345 18.2773 21.0062 18.392C21.0793 18.509 21.1888 18.601 21.3192 18.6552C21.4574 18.7133 21.612 18.7257 21.7584 18.6903C21.9045 18.6549 22.0343 18.574 22.1272 18.4602C22.2459 18.32 22.3481 18.1672 22.4313 18.0052C22.6771 17.5227 22.912 17.0343 23.1458 16.548C23.2363 16.3599 23.3242 16.1914 23.4242 16.008C23.4311 16.0306 23.4381 16.0526 23.4454 16.0748C23.5502 16.5177 23.7271 16.942 23.9697 17.332C24.0155 17.4146 24.0795 17.4869 24.1571 17.5437C24.2356 17.6012 24.3262 17.6416 24.4226 17.6621C24.519 17.6826 24.619 17.6827 24.7154 17.6624C24.8117 17.6421 24.9026 17.6017 24.9812 17.5444L25.1367 17.4327L26.3436 16.457L26.2722 16.8936C26.1742 17.4936 26.077 18.0886 25.9737 18.6838C25.9062 18.9476 25.9063 19.2231 25.974 19.4868C26.0034 19.6352 26.0782 19.7719 26.1888 19.8793C26.3004 19.9876 26.4433 20.0612 26.5991 20.0906C26.7548 20.1199 26.9161 20.1037 27.0621 20.0439C27.2059 19.985 27.3283 19.8866 27.4138 19.7611C27.6128 19.5241 27.7367 19.2373 27.7707 18.9346C27.8219 18.5072 27.8798 18.074 27.9377 17.6409C28.0044 17.1417 28.0711 16.6427 28.1274 16.1532L28.1276 16.1517C28.1818 15.6159 28.208 15.0779 28.2062 14.5396C28.2181 14.3694 28.1739 14.2 28.0799 14.0551C27.9855 13.9098 27.8458 13.7968 27.6806 13.7322C27.5088 13.6572 27.3165 13.6372 27.132 13.675C26.9486 13.7127 26.7827 13.8054 26.6581 13.9398C26.4355 14.1374 26.2267 14.3488 26.033 14.5728L26.0317 14.5743C25.8202 14.8272 25.6102 15.0851 25.4015 15.3413C25.2746 15.4971 25.1481 15.6525 25.0222 15.8055Z" fill="#7A6E3A"/>
</g>
<defs>
<clipPath id="clip0_211_2057">
<rect width="32.7153" height="20.186" fill="white" transform="translate(0.160461 0.749756)"/>
</clipPath>
</defs>
</svg>
